<?xml version="1.0" standalone="no"?>
<!DOCTYPE svg PUBLIC "-//W3C//DTD SVG 20010904//EN"
 "http://www.w3.org/TR/2001/REC-SVG-20010904/DTD/svg10.dtd">
<svg version="1.0" xmlns="http://www.w3.org/2000/svg"
 width="700.000000pt" height="700.000000pt" viewBox="0 0 700.000000 700.000000"
 preserveAspectRatio="xMidYMid meet">
<metadata>
Created by potrace 1.14, written by Peter Selinger 2001-2017
</metadata>
<g transform="translate(0.000000,700.000000) scale(0.100000,-0.100000)"
fill="#000000" stroke="none">
<path d="M0 1528 l0 -1528 875 0 875 0 0 215 0 215 123 1 c67 0 165 1 217 2
l95 2 1 650 c1 358 -2 652 -6 655 -5 3 -104 5 -219 5 l-211 0 0 217 0 218 -32
1 c-18 0 -208 0 -423 0 -214 0 -397 2 -405 5 -13 3 -15 59 -15 434 0 424 0
431 -20 435 -11 2 -208 3 -437 3 l-418 -1 0 -1529z m1311 202 c0 -19 0 -1271
0 -1287 -1 -8 -61 -11 -218 -10 l-218 2 0 650 c-1 358 3 652 6 655 4 3 102 5
218 5 181 0 211 -2 212 -15z"/>
<path d="M2631 2175 c-6 -8 -8 -1703 -2 -1738 0 -4 96 -7 212 -6 115 1 213 -1
216 -5 3 -3 6 -100 6 -216 l0 -210 873 0 874 0 1 138 c2 800 0 2035 -5 2039
-3 3 -199 7 -436 7 -376 1 -430 -1 -431 -14 0 -8 -1 -402 -2 -875 l-2 -860
-217 -2 -218 -2 0 875 c0 481 -3 874 -7 875 -5 0 -199 1 -431 2 -273 1 -426
-2 -431 -8z"/>
<path d="M5705 2182 c-19 -3 -20 -10 -19 -217 1 -149 -2 -215 -10 -216 -6 -1
-99 -3 -206 -4 -107 -1 -201 -3 -207 -4 -10 -1 -13 -95 -13 -436 l0 -435 437
-2 438 -3 0 -213 c0 -181 -2 -213 -15 -216 -8 -3 -186 -5 -395 -5 -209 0 -399
0 -422 0 l-43 -1 0 -215 0 -215 657 2 657 3 -1 213 0 212 76 1 c42 0 140 0
219 0 l142 -2 0 440 0 439 -342 1 c-189 0 -386 0 -438 0 l-96 1 1 213 c0 116
3 214 6 217 4 3 201 5 438 5 l431 0 0 217 0 218 -22 1 c-77 2 -1257 3 -1273 1z"/>
</g>
</svg>
